<?xml version="1.0" encoding="UTF-8"?>
<svg width="87px" height="93px" viewBox="0 0 87 93" version="1.1" xmlns="http://www.w3.org/2000/svg" xmlns:xlink="http://www.w3.org/1999/xlink">
    <!-- Generator: Sketch 57.1 (83088) - https://sketch.com -->
    <title>icon-scroll</title>
    <desc>Created with Sketch.</desc>
    <defs>
        <polygon id="path-1" points="0.0005 0.5001 86.8835 0.5001 86.8835 93 0.0005 93"></polygon>
        <polygon id="path-3" points="0 93.5 86.884 93.5 86.884 1 0 1"></polygon>
    </defs>
    <g id="Final" stroke="none" stroke-width="1" fill="none" fill-rule="evenodd">
        <g id="Home-Page-Antrea--" transform="translate(-1037.000000, -1535.000000)">
            <g id="2" transform="translate(250.000000, 1471.000000)">
                <g id="icon-scroll" transform="translate(787.000000, 63.000000)">
                    <g id="Group-3" transform="translate(0.000000, 0.500000)">
                        <mask id="mask-2" fill="white">
                            <use xlink:href="#path-1"></use>
                        </mask>
                        <g id="Clip-2"></g>
                        <path d="M8.2305,85.6411 L8.2305,17.8921 L66.5285,17.8921 C67.2185,17.8921 67.7785,17.3331 67.7785,16.6421 C67.7785,15.9521 67.2185,15.3921 66.5285,15.3921 C63.5375,15.3921 61.1035,13.2281 61.1035,10.5681 L61.1035,8.1381 C61.1035,5.4781 63.4585,3.1031 66.4495,3.1031 L66.8585,3.1031 L66.9775,3.1031 C69.2005,3.3601 70.7305,5.3831 70.7305,7.5651 L70.7305,83.4331 C70.7435,86.4851 71.4545,88.8561 72.8465,90.5001 L12.7565,90.5001 C10.3455,90.5001 8.2305,88.2291 8.2305,85.6411 M2.5005,10.5681 L2.5005,8.1381 C2.5005,5.4781 4.9335,3.3141 7.9245,3.3141 L60.5705,3.3141 C59.3465,4.6031 58.6035,6.2921 58.6035,8.1381 L58.6035,10.5681 C58.6035,12.4141 59.3465,14.1031 60.5705,15.3921 L7.9245,15.3921 C4.9335,15.3921 2.5005,13.2281 2.5005,10.5681 M79.0835,75.8451 L76.7535,75.8451 C76.0635,75.8451 75.5035,76.4051 75.5035,77.0951 C75.5035,77.7861 76.0635,78.3451 76.7535,78.3451 L79.0835,78.3451 C82.0055,78.3451 84.3835,80.5091 84.3835,83.1691 L84.3835,85.5991 C84.3835,88.2591 82.0055,90.4241 79.0835,90.4241 L77.7435,90.4241 C77.0155,90.3381 76.0655,90.0841 75.2445,89.3781 C73.9195,88.2401 73.2425,86.2351 73.2305,83.4271 L73.2305,7.5651 C73.2305,3.6691 70.0785,0.5001 66.2045,0.5001 L12.7565,0.5001 C12.0625,0.5001 11.3995,0.6231 10.7655,0.8141 L7.9245,0.8141 C3.5545,0.8141 0.0005,4.0991 0.0005,8.1381 L0.0005,10.5681 C0.0005,13.9031 2.4255,16.7181 5.7305,17.6011 L5.7305,85.6411 C5.7305,89.6301 8.9485,93.0001 12.7565,93.0001 L72.9005,93.0001 L72.9005,92.8351 C73.0385,92.8871 73.1845,92.9241 73.3405,92.9241 L77.6005,92.9241 C78.4025,93.0031 79.0075,92.9441 79.2095,92.9181 C83.4525,92.8531 86.8835,89.5981 86.8835,85.5991 L86.8835,83.1691 C86.8835,79.1311 83.3845,75.8451 79.0835,75.8451" id="Fill-1" fill="#FFFFFF" mask="url(#mask-2)"></path>
                    </g>
                    <mask id="mask-4" fill="white">
                        <use xlink:href="#path-3"></use>
                    </mask>
                    <g id="Clip-5"></g>
                    <polygon id="Fill-4" fill="#FFFFFF" mask="url(#mask-4)" points="19.905 31.024 59.905 31.024 59.905 28.524 19.905 28.524"></polygon>
                    <polygon id="Fill-6" fill="#FFFFFF" mask="url(#mask-4)" points="19.905 41.052 59.905 41.052 59.905 38.552 19.905 38.552"></polygon>
                    <polygon id="Fill-7" fill="#FFFFFF" mask="url(#mask-4)" points="19.905 51.079 59.905 51.079 59.905 48.579 19.905 48.579"></polygon>
                    <polygon id="Fill-8" fill="#FFFFFF" mask="url(#mask-4)" points="19.905 61.107 59.905 61.107 59.905 58.607 19.905 58.607"></polygon>
                    <polygon id="Fill-9" fill="#FFFFFF" mask="url(#mask-4)" points="19.905 71.134 59.905 71.134 59.905 68.634 19.905 68.634"></polygon>
                    <polygon id="Fill-10" fill="#FFFFFF" mask="url(#mask-4)" points="19.905 81.162 59.905 81.162 59.905 78.662 19.905 78.662"></polygon>
                </g>
            </g>
        </g>
    </g>
</svg>