<?xml version="1.0" encoding="UTF-8"?>
<svg width="160px" height="45px" viewBox="0 0 160 45" version="1.1" xmlns="http://www.w3.org/2000/svg" xmlns:xlink="http://www.w3.org/1999/xlink">
    <!-- Generator: Sketch 57.1 (83088) - https://sketch.com -->
    <title>logo</title>
    <desc>Created with Sketch.</desc>
    <defs>
        <polygon id="path-1" points="0 0.034875 44.9652981 0.034875 44.9652981 45 0 45"></polygon>
        <polygon id="path-3" points="0.102985714 0.197014286 17.6957143 0.197014286 17.6957143 17.6827286 0.102985714 17.6827286"></polygon>
    </defs>
    <g id="Final" stroke="none" stroke-width="1" fill="none" fill-rule="evenodd">
        <g id="Home-Page-Antrea--" transform="translate(-251.000000, -18.000000)">
            <g id="Desktop-Masthead-(Nav)-Copy">
                <g id="logo" transform="translate(251.000000, 18.000000)">
                    <path d="M23,4 C34.0454947,4 43,12.730212 43,23.5 C43,34.269788 34.0454947,43 23,43 C11.9540636,43 3,34.269788 3,23.5 C3,12.730212 11.9540636,4 23,4" id="Fill-1" fill="#FFFFFF"></path>
                    <path d="M23.5,3 C35.3741454,3 45,12.1781404 45,23.5 C45,34.8214374 35.3741454,44 23.5,44 C11.6258546,44 2,34.8214374 2,23.5 C2,12.1781404 11.6258546,3 23.5,3" id="Fill-3" fill="#1E4489"></path>
                    <g id="Group-7">
                        <mask id="mask-2" fill="white">
                            <use xlink:href="#path-1"></use>
                        </mask>
                        <g id="Clip-6"></g>
                        <path d="M22.4826058,40.8632885 C12.3532788,40.8632885 4.14077885,32.6512212 4.14077885,22.5214615 C4.14077885,12.3921346 12.3532788,4.17963462 22.4826058,4.17963462 C32.6119327,4.17963462 40.8244327,12.3921346 40.8244327,22.5214615 C40.8244327,32.6512212 32.6162596,40.8632885 22.4826058,40.8632885 M22.4826058,0.034875 C10.0643365,0.034875 -8.65384615e-05,10.103625 -8.65384615e-05,22.5175673 C-8.65384615e-05,34.9310769 10.0686635,45.0002596 22.4826058,45.0002596 C34.8965481,45.0002596 44.9652981,34.9310769 44.9652981,22.5175673 C44.9652981,10.103625 34.900875,0.034875 22.4826058,0.034875" id="Fill-5" fill="#727174" mask="url(#mask-2)"></path>
                    </g>
                    <path d="M67.1611016,25.3083333 L63.0197417,16.375 L58.8520595,25.3083333 L67.1611016,25.3083333 Z M67.9946381,27.1416667 L58.014136,27.1416667 L56.2154521,31 L54,31 L61.8922739,14 L64.1077261,14 L72,31 L69.7845479,31 L67.9946381,27.1416667 Z" id="Fill-8" fill="#717073"></path>
                    <polygon id="Fill-10" fill="#717073" points="76 14 78.0094905 14 88.9905095 27.8333333 88.9905095 14 91 14 91 31 88.9905095 31 78.0094905 17.1666667 78.0094905 31 76 31"></polygon>
                    <polygon id="Fill-12" fill="#717073" points="98.9892114 15.8291667 93 15.8291667 93 14 107 14 107 15.8291667 101.010352 15.8291667 101.010352 31 98.9892114 31"></polygon>
                    <path d="M112.051906,23.0583333 L116.975596,23.0583333 C118.4691,23.0583333 119.665676,22.7370833 120.569756,22.0916667 C121.473835,21.4458333 121.925875,20.5666667 121.925875,19.4458333 C121.925875,18.325 121.473835,17.4416667 120.569756,16.7995833 C119.665676,16.1579167 118.4691,15.8333333 116.975596,15.8333333 L112.051906,15.8333333 L112.051906,23.0583333 Z M123.277563,22.0166667 C122.794501,22.79125 122.125305,23.4291667 121.265543,23.9204167 C120.405781,24.4166667 119.439656,24.7204167 118.371601,24.8375 L122.976203,31 L120.6318,31 L116.053789,24.8875 L112.051906,24.8875 L112.051906,31 L110,31 L110,14 L117.343432,14 C118.57103,14 119.692267,14.2333333 120.711572,14.6916667 C121.730878,15.1541667 122.533027,15.8 123.11802,16.6333333 C123.707444,17.4666667 124,18.4041667 124,19.4416667 C124.004372,20.3833333 123.760625,21.2416667 123.277563,22.0166667 L123.277563,22.0166667 Z" id="Fill-14" fill="#717073"></path>
                    <polygon id="Fill-16" fill="#717073" points="130.081936 15.8291667 130.081936 21.425 139.91663 21.425 139.91663 23.2583333 130.081936 23.2583333 130.081936 29.1708333 141 29.1708333 141 31 128 31 128 14 141 14 141 15.8291667"></polygon>
                    <g id="Group-20" transform="translate(142.000000, 14.000000)">
                        <mask id="mask-4" fill="white">
                            <use xlink:href="#path-3"></use>
                        </mask>
                        <g id="Clip-19"></g>
                        <path d="M12.9558429,11.8284429 L8.91012857,2.63987143 L4.8387,11.8284429 L12.9558429,11.8284429 Z M13.7744143,13.7141571 L4.02441429,13.7141571 L2.26727143,17.6827286 L0.102985714,17.6827286 L7.81727143,0.197014286 L9.98155714,0.197014286 L17.6958429,17.6827286 L15.5315571,17.6827286 L13.7744143,13.7141571 Z" id="Fill-18" fill="#717073" mask="url(#mask-4)"></path>
                    </g>
                    <path d="M9.95753215,12.0552017 C10.1458063,11.85138 10.3475286,11.6602972 10.5492509,11.4692144 C11.2171759,12.462845 11.8223428,13.5116773 12.2526837,14.7515924 C9.33891707,17.0658174 7.51893358,20.6581741 7.51893358,25.8004246 C7.51893358,26.3312102 7.53238174,26.836518 7.55927805,27.3248408 C6.84204318,25.7197452 6.43859856,24.0721868 6.43859856,22.5048832 C6.43859856,17.5031847 7.81031025,14.3397028 9.95753215,12.0552017 M18.6629704,7.1507431 C18.8871063,7.07430998 19.1157249,7.00636943 19.3443435,6.93418259 C19.3264126,7.46496815 19.3084818,7.99150743 19.2860682,8.52653928 C19.2457237,9.5329087 19.2053793,10.5477707 19.1515866,11.5626327 C17.4212575,12.0169851 15.7850655,12.6029724 14.3012858,13.4140127 C13.7947387,12.1104034 13.15371,10.985138 12.4857851,9.97452229 C14.2654241,8.80254777 16.3633361,7.91507431 18.6629704,7.1507431 M20.6308836,21.2186837 C22.0429397,20.7600849 23.5670638,20.3779193 25.1629114,20.0467091 C24.9029138,21.6942675 24.5711926,23.2696391 24.1453344,24.7218684 C22.6032795,25.0186837 21.0836381,25.3711253 19.5998584,25.7876858 C20.0257166,24.2802548 20.3664032,22.7511677 20.6308836,21.2186837 M21.5005308,13.3927813 C22.531556,13.1804671 23.6074083,12.9936306 24.7101569,12.836518 C25.1225669,12.7770701 25.5394597,12.7303609 25.9563525,12.6751592 C25.8442845,14.1019108 25.7232512,15.5201699 25.5753215,16.9087049 C25.5484252,17.1464968 25.5215288,17.3800425 25.4946325,17.6135881 C23.9525776,17.9065817 22.4508671,18.2505308 21.0119146,18.6666667 C21.2405332,16.9044586 21.3884629,15.1422505 21.5005308,13.3927813 M21.7381149,8.48832272 C21.7694939,7.71549894 21.7919075,6.94692144 21.8232865,6.1910828 C23.3967205,5.74946921 25.010499,5.32484076 26.6287602,4.86199575 C26.4270379,6.64968153 26.2791082,8.47558386 26.1401439,10.3099788 C25.5798042,10.3779193 25.0239472,10.4501062 24.4725728,10.5307856 C23.5132712,10.6666667 22.562935,10.8237792 21.6305297,10.9978769 C21.6708741,10.1571125 21.7067359,9.3163482 21.7381149,8.48832272 M27.695647,19.5753715 C27.9377138,19.5329087 28.1752979,19.4946921 28.4218474,19.4564756 C29.7890763,19.2356688 31.192167,19.0403397 32.5997405,18.8535032 C32.5683614,19.1974522 32.5414651,19.537155 32.5100861,19.8726115 C32.3800873,21.1507431 32.2142267,22.3906582 31.9856081,23.5664544 C30.2507963,23.7664544 28.5159844,23.9872611 26.7946207,24.2590234 C27.1846172,22.7558386 27.4670284,21.1847134 27.695647,19.5753715 M28.01392,17.0318471 C28.1797806,15.4946921 28.3097794,13.940552 28.4308128,12.3864119 C29.9728678,12.2165605 31.5373363,12.0509554 33.0973222,11.8641189 C32.9762888,13.4140127 32.8821517,14.9681529 32.7790492,16.4968153 C31.2280288,16.7006369 29.6725257,16.9129512 28.1394361,17.1549894 C28.0946089,17.163482 28.045299,17.1719745 28.0004719,17.1762208 C28.0049546,17.1295117 28.0094373,17.0785563 28.01392,17.0318471 M33.9983485,25.6857749 C34.8904093,25.5881104 35.7869529,25.4942675 36.6790138,25.4050955 C37.4590067,25.3248408 38.2389996,25.247983 39.0189926,25.1719745 C38.996579,25.2526539 38.9741654,25.3333333 38.9472691,25.4097665 C38.2524478,27.6343949 37.4186623,29.6815287 36.2845346,31.4437367 C35.1459243,30.8407643 33.8817978,30.2713376 32.4249145,29.8598726 C33.1197358,28.5647558 33.6218002,27.158811 33.9983485,25.6857749 M34.9486847,19.9830149 C34.9979946,19.5031847 35.038339,19.014862 35.0786835,18.5307856 C37.0645275,18.2717622 39.0414062,18.0127389 40.9734576,17.6985138 C40.5296685,19.4055202 40.1307066,21.1082803 39.7003657,22.7558386 C38.6603751,22.866242 37.6069364,22.9766454 36.549015,23.0866242 C35.8721246,23.1549894 35.1952342,23.2271762 34.513861,23.2951168 C34.6931698,22.2123142 34.832134,21.0997877 34.9486847,19.9830149 M34.2090362,33.9745223 C31.9183673,36.143949 28.6773623,37.6093418 23.4729267,37.8636943 C21.5946679,37.9575372 19.6760646,37.6008493 17.8336676,36.9044586 C18.4567654,36.9171975 19.1067595,36.9044586 19.7926153,36.8700637 C25.1449805,36.6067941 28.8118438,34.7218684 31.0935472,31.8768577 C32.4921552,32.2161359 33.6800755,32.7515924 34.8052377,33.358811 C34.6124808,33.5711253 34.4152412,33.7745223 34.2090362,33.9745223 M24.8580866,29.3757962 C25.3018757,28.5435244 25.6873894,27.6726115 26.0191105,26.7600849 C27.7808187,26.4543524 29.5828713,26.1995754 31.3983721,25.9787686 C31.0307892,27.2186837 30.5690692,28.3524416 29.9773505,29.3498938 C28.4801227,29.158811 26.7946207,29.1422505 24.8580866,29.3757962 M28.2918485,31.5031847 C26.5570367,33.1804671 24.0780937,34.2632696 20.2005426,34.5176221 C21.2988085,33.8131635 22.2581102,32.9723992 23.0739648,32.0169851 C25.1091188,31.596603 26.8170343,31.447983 28.2918485,31.5031847 M18.716763,28.5053079 C20.1646809,28.0382166 21.6708741,27.6433121 23.2174118,27.3078556 C22.9260352,27.9745223 22.6032795,28.5987261 22.2401793,29.1804671 C20.846054,31.4309979 18.9991742,33.0700637 16.1571311,33.9023355 C17.2060871,32.1571125 18.0398726,30.3481953 18.716763,28.5053079 M13.3823287,33.8768577 C12.8981951,33.6645435 12.423027,33.3970276 11.929928,33.0615711 C11.6519995,32.7299363 11.4144155,32.403397 11.2082105,32.0760085 C12.5799221,31.1205945 14.0816327,30.3227176 15.6774802,29.6390658 C15.0409343,31.0955414 14.283355,32.5095541 13.3823287,33.8768577 M15.856789,23.3927813 C16.4978176,22.9766454 17.2016043,22.5987261 17.9502182,22.2547771 C17.6453934,23.7579618 17.2733278,25.2356688 16.7981597,26.6878981 C14.8750737,27.3800425 13.0371594,28.2165605 11.3202784,29.2484076 C12.0688923,26.6157113 13.6557744,24.8152866 15.856789,23.3927813 M14.9871417,15.6772824 C16.1526483,14.985138 17.5064292,14.4458599 19.003657,14.0084926 C18.8736581,15.8598726 18.6898667,17.7112527 18.4209036,19.5414013 C17.3002241,19.9745223 16.2333373,20.4755839 15.2426566,21.0573248 C15.4354135,18.985138 15.3143801,17.2186837 14.9871417,15.6772824 M9.9709803,25.6772824 C9.96649758,21.6772824 11.0333845,19.1380042 12.8264716,17.3375796 C13.0012976,18.9002123 12.9340569,20.7515924 12.5037159,23.0318471 L12.5440604,23.0356688 C11.517518,23.9910828 10.6478707,25.1036093 9.9709803,26.373673 C9.96649758,26.1481953 9.9709803,25.918896 9.9709803,25.6772824 M10.1009791,35.2186837 C10.1771853,35.2866242 10.2578742,35.3545648 10.3340805,35.418259 C13.6961189,38.2670913 18.129527,40 22.9977586,40 C33.4918013,40 42,31.940552 42,22 C42,19.6687898 41.5293146,17.4437367 40.6775982,15.4012739 C38.9114073,15.6900212 37.0824584,15.9447983 35.2221305,16.1953291 C35.3341984,14.6326964 35.4373009,13.07431 35.5672998,11.5456476 C36.3338445,11.4309979 37.1003893,11.3036093 37.8490032,11.1592357 C37.9431403,11.1422505 38.0327946,11.1210191 38.122449,11.104034 C36.867288,9.54140127 35.3521293,8.17834395 33.6307656,7.07855626 C33.6173174,7.15923567 33.6038693,7.23991507 33.5904211,7.32059448 C33.4783532,8.03821656 33.3842161,8.76857749 33.3035272,9.50318471 C31.7569895,9.6985138 30.1745901,9.87685775 28.5921906,10.0552017 C28.7356376,8.31422505 28.8835673,6.59872611 29.0718415,4.94267516 C27.1666863,4.33545648 25.1225669,4 23.0022414,4 C12.5081987,4 4,12.059448 4,22 C4,26.2887473 5.58688215,30.2250531 8.23168574,33.3159236 C8.3213401,33.418259 8.41099446,33.5244161 8.50513153,33.626327 C8.55444143,33.6815287 8.60375133,33.7367304 8.65754394,33.7915074 C8.83236994,33.9787686 9.01167866,34.1651805 9.19098738,34.3524416 C9.21340097,34.373673 9.23581456,34.3991507 9.26271086,34.4203822 C9.41512327,34.5690021 9.56753568,34.7176221 9.72443081,34.866242 C9.84098148,34.9893843 9.9709803,35.1036093 10.1009791,35.2186837" id="Fill-21" fill="#19BFD3"></path>
                </g>
            </g>
        </g>
    </g>
</svg>