<?xml version="1.0" encoding="UTF-8"?>
<svg width="92px" height="92px" viewBox="0 0 92 92" version="1.1" xmlns="http://www.w3.org/2000/svg" xmlns:xlink="http://www.w3.org/1999/xlink">
    <!-- Generator: Sketch 57.1 (83088) - https://sketch.com -->
    <title>icon-key</title>
    <desc>Created with Sketch.</desc>
    <defs>
        <polygon id="path-1" points="0 0.821 91.63 0.821 91.63 92 0 92"></polygon>
    </defs>
    <g id="Final" stroke="none" stroke-width="1" fill="none" fill-rule="evenodd">
        <g id="Home-Page-Antrea--" transform="translate(-314.000000, -1786.000000)">
            <g id="3" transform="translate(250.000000, 1721.000000)">
                <g id="icon-key" transform="translate(64.000000, 64.000000)">
                    <g id="Group-3" transform="translate(0.000000, 0.179200)">
                        <mask id="mask-2" fill="white">
                            <use xlink:href="#path-1"></use>
                        </mask>
                        <g id="Clip-2"></g>
                        <path d="M2.5,89.5 L18.112,89.5 L18.112,79.546 L28.902,79.546 L34.044,74.434 L34.044,64.346 L44.168,64.346 L52.111,56.481 L63.57,67.941 C65.715,70.085 69.203,70.086 71.348,67.941 L87.527,51.762 C88.561,50.729 89.13,49.348 89.13,47.874 C89.13,46.399 88.561,45.019 87.527,43.985 L48.47,4.928 C47.437,3.895 46.055,3.325 44.581,3.325 C43.107,3.325 41.726,3.895 40.692,4.928 L24.514,21.106 C23.48,22.14 22.911,23.521 22.911,24.995 C22.911,26.47 23.48,27.851 24.514,28.884 L36.147,40.518 L35.243,41.402 C9.568,66.488 3.797,72.127 2.5,73.395 L2.5,89.5 Z M20.612,92 L0,92 L0,72.351 L0.366,71.984 C0.373,71.978 0.378,71.973 32.591,40.498 L22.746,30.652 C19.627,27.533 19.627,22.458 22.746,19.339 L38.925,3.16 C42.044,0.041 47.118,0.041 50.237,3.16 L89.295,42.217 C90.801,43.723 91.63,45.732 91.63,47.874 C91.63,50.016 90.801,52.024 89.295,53.53 L73.115,69.709 C69.996,72.829 64.922,72.828 61.803,69.709 L52.103,60.008 L45.197,66.846 L36.544,66.846 L36.544,75.474 L29.934,82.046 L20.612,82.046 L20.612,92 Z" id="Fill-1" fill="#FFFFFF" mask="url(#mask-2)"></path>
                    </g>
                    <polygon id="Fill-4" fill="#FFFFFF" points="8.7842 76.5615 7.0162 74.7935 36.4112 45.3995 38.1792 47.1665"></polygon>
                    <path d="M55.7881,46.373 C55.0981,46.373 54.5381,45.813 54.5381,45.123 C54.5381,44.433 55.0981,43.873 55.7881,43.873 C59.9241,43.873 63.2881,40.509 63.2881,36.373 C63.2881,32.237 59.9241,28.873 55.7881,28.873 C51.6521,28.873 48.2881,32.237 48.2881,36.373 C48.2881,37.063 47.7281,37.623 47.0381,37.623 C46.3481,37.623 45.7881,37.063 45.7881,36.373 C45.7881,30.859 50.2741,26.373 55.7881,26.373 C61.3021,26.373 65.7881,30.859 65.7881,36.373 C65.7881,41.887 61.3021,46.373 55.7881,46.373" id="Fill-6" fill="#FFFFFF"></path>
                </g>
            </g>
        </g>
    </g>
</svg>