<?xml version="1.0" encoding="utf-8"?>
<!-- Generator: Adobe Illustrator 23.0.6, SVG Export Plug-In . SVG Version: 6.00 Build 0)  -->
<svg version="1.1" id="Layer_5" xmlns="http://www.w3.org/2000/svg" xmlns:xlink="http://www.w3.org/1999/xlink" x="0px" y="0px"
	 viewBox="0 0 316.6 244.88" style="enable-background:new 0 0 316.6 244.88;" xml:space="preserve">
<style type="text/css">
	.st0{fill:#FFFFFF;}
	.st1{fill:#1E4489;}
	.st2{fill:#727174;}
	.st3{fill:#717073;}
	.st4{fill:#19BFD3;}
</style>
<g>
	<circle class="st0" cx="158.3" cy="80.59" r="45.28"/>
	<circle class="st1" cx="158.3" cy="80.7" r="48.56"/>
	<g>
		<path class="st2" d="M158.3,28.78c-28.7,0-51.96,23.27-51.96,51.96s23.27,51.96,51.96,51.96s51.96-23.27,51.96-51.96
			S187,28.78,158.3,28.78z M158.3,123.14c-23.41,0-42.39-18.98-42.39-42.39s18.98-42.39,42.39-42.39s42.39,18.98,42.39,42.39
			S181.71,123.14,158.3,123.14z"/>
	</g>
	<g>
		<g>
			<path class="st3" d="M70.82,192.56H48.08l-4.1,9.26h-5.05l17.99-40.8h5.05l17.99,40.8h-5.05L70.82,192.56z M68.92,188.17
				l-9.44-21.44l-9.5,21.44H68.92z"/>
			<path class="st3" d="M86.14,161.03h4.63l25.3,33.2v-33.2h4.63v40.8h-4.63l-25.3-33.2v33.2h-4.63V161.03z"/>
			<path class="st3" d="M140.6,165.42h-13.72v-4.39h32.07v4.39h-13.72v36.41h-4.63V165.42z"/>
			<path class="st3" d="M195.09,180.27c-1.09,1.86-2.6,3.39-4.54,4.57c-1.94,1.19-4.12,1.92-6.53,2.2l10.39,14.79h-5.29
				l-10.33-14.67h-9.03v14.67h-4.63v-40.8h16.57c2.77,0,5.3,0.56,7.6,1.66c2.3,1.11,4.11,2.66,5.43,4.66c1.33,2,1.99,4.25,1.99,6.74
				C196.72,176.35,196.18,178.41,195.09,180.27z M169.76,182.76h11.11c3.37,0,6.07-0.77,8.11-2.32s3.06-3.66,3.06-6.35
				c0-2.69-1.02-4.81-3.06-6.35s-4.74-2.32-8.11-2.32h-11.11V182.76z"/>
			<path class="st3" d="M209.02,165.42v13.42h22.15v4.4h-22.15v14.19h24.59v4.39h-29.28v-40.8h29.28v4.39H209.02z"/>
			<path class="st3" d="M268.52,192.56h-22.75l-4.1,9.26h-5.05l18-40.8h5.05l18,40.8h-5.05L268.52,192.56z M266.62,188.17
				l-9.44-21.44l-9.5,21.44H266.62z"/>
		</g>
	</g>
	<path class="st4" d="M129.53,111.87c0.17,0.16,0.35,0.32,0.52,0.47c7.5,6.71,17.39,10.79,28.25,10.79
		c23.41,0,42.39-18.98,42.39-42.39c0-5.49-1.05-10.73-2.95-15.54c-3.94,0.68-8.02,1.28-12.17,1.87c0.25-3.68,0.48-7.35,0.77-10.95
		c1.71-0.27,3.42-0.57,5.09-0.91c0.21-0.04,0.41-0.09,0.61-0.13c-2.8-3.68-6.18-6.89-10.02-9.48c-0.03,0.19-0.06,0.38-0.09,0.57
		c-0.25,1.69-0.46,3.41-0.64,5.14c-3.45,0.46-6.98,0.88-10.51,1.3c0.32-4.1,0.65-8.14,1.07-12.04c-4.25-1.43-8.81-2.22-13.54-2.22
		c-23.41,0-42.39,18.98-42.39,42.39c0,10.1,3.54,19.37,9.44,26.65c0.2,0.24,0.4,0.49,0.61,0.73c0.11,0.13,0.22,0.26,0.34,0.39
		c0.39,0.44,0.79,0.88,1.19,1.32c0.05,0.05,0.1,0.11,0.16,0.16c0.34,0.35,0.68,0.7,1.03,1.05
		C128.95,111.33,129.24,111.6,129.53,111.87z M129.24,89.41c-0.01-9.42,2.37-15.4,6.37-19.64l0,0c0.39,3.68,0.24,8.04-0.72,13.41
		l0.09,0.01c-2.29,2.25-4.23,4.87-5.74,7.86C129.24,90.51,129.24,89.97,129.24,89.41z M140.43,65.86c2.6-1.63,5.62-2.9,8.96-3.93
		c-0.29,4.36-0.7,8.72-1.3,13.03c-2.5,1.02-4.88,2.2-7.09,3.57C141.44,73.64,141.16,69.48,140.43,65.86z M142.37,84.02
		c1.43-0.98,3-1.87,4.67-2.68c-0.68,3.53-1.51,7.02-2.57,10.44c-4.29,1.63-8.39,3.6-12.22,6.03
		C133.93,91.62,137.46,87.37,142.37,84.02z M136.86,108.71c-1.08-0.5-2.14-1.13-3.24-1.92c-0.62-0.78-1.15-1.55-1.61-2.32
		c3.06-2.25,6.41-4.13,9.97-5.74C140.55,102.16,138.86,105.5,136.86,108.71z M148.76,96.06c3.23-1.1,6.59-2.03,10.04-2.82
		c-0.65,1.57-1.37,3.04-2.18,4.41c-3.11,5.3-7.23,9.16-13.57,11.12C145.38,104.66,147.25,100.4,148.76,96.06z M170.12,103.12
		c-3.87,3.95-9.4,6.5-18.05,7.1c2.45-1.66,4.59-3.64,6.41-5.89C163.01,103.34,166.82,102.99,170.12,103.12z M162.46,98.12
		c0.99-1.96,1.85-4.01,2.59-6.16c3.93-0.72,7.95-1.32,12-1.84c-0.82,2.92-1.85,5.59-3.17,7.94
		C170.54,97.6,166.77,97.56,162.46,98.12z M183.31,108.94c-5.11,5.11-12.34,8.56-23.95,9.16c-4.19,0.22-8.47-0.62-12.58-2.26
		c1.39,0.03,2.84,0,4.37-0.08c11.94-0.62,20.12-5.06,25.21-11.76c3.12,0.8,5.77,2.06,8.28,3.49l0,0
		C184.22,107.99,183.78,108.48,183.31,108.94z M184.96,75.99c0.11-1.13,0.2-2.28,0.29-3.42c4.43-0.61,8.84-1.22,13.15-1.96
		c-0.99,4.02-1.88,8.03-2.84,11.91c-2.32,0.26-4.67,0.52-7.03,0.78c-1.51,0.16-3.02,0.33-4.54,0.49
		C184.4,81.24,184.71,78.63,184.96,75.99z M182.85,89.42c1.99-0.23,3.99-0.45,5.98-0.66c1.74-0.19,3.48-0.37,5.22-0.55
		c-0.05,0.19-0.1,0.38-0.16,0.56c-1.55,5.24-3.41,10.06-5.94,14.21c-2.54-1.42-5.36-2.76-8.61-3.73
		C180.88,96.2,182,92.89,182.85,89.42z M169.5,69.04c0.37-3.62,0.66-7.28,0.93-10.94c3.44-0.4,6.93-0.79,10.41-1.23
		c-0.27,3.65-0.48,7.31-0.71,10.91c-3.46,0.48-6.93,0.98-10.35,1.55c-0.1,0.02-0.21,0.04-0.31,0.05
		C169.47,69.27,169.49,69.15,169.5,69.04z M168.79,75.03c0.54-0.1,1.07-0.19,1.62-0.28c3.05-0.52,6.18-0.98,9.32-1.42
		c-0.07,0.81-0.13,1.61-0.2,2.4c-0.29,3.01-0.66,5.93-1.17,8.7c-3.87,0.47-7.74,0.99-11.58,1.63
		C167.64,82.53,168.28,78.82,168.79,75.03z M155.5,48.92c0.07-1.82,0.12-3.63,0.19-5.41c3.51-1.04,7.11-2.04,10.72-3.13
		c-0.45,4.21-0.78,8.51-1.09,12.83c-1.25,0.16-2.49,0.33-3.72,0.52c-2.14,0.32-4.26,0.69-6.34,1.1
		C155.35,52.85,155.42,50.87,155.5,48.92z M154.97,60.47c2.3-0.5,4.7-0.94,7.16-1.31c0.92-0.14,1.85-0.25,2.78-0.38
		c-0.25,3.36-0.52,6.7-0.85,9.97c-0.06,0.56-0.12,1.11-0.18,1.66c-3.44,0.69-6.79,1.5-10,2.48
		C154.38,68.74,154.72,64.59,154.97,60.47z M153.03,78.9c3.15-1.08,6.55-1.98,10.11-2.76c-0.58,3.88-1.32,7.59-2.27,11.01
		c-3.44,0.7-6.83,1.53-10.14,2.51C151.68,86.11,152.43,82.51,153.03,78.9z M148.63,45.77c0.5-0.18,1.01-0.34,1.52-0.51
		c-0.04,1.25-0.08,2.49-0.13,3.75c-0.09,2.37-0.18,4.76-0.3,7.15c-3.86,1.07-7.51,2.45-10.82,4.36c-1.13-3.07-2.56-5.72-4.05-8.1
		C138.82,49.66,143.5,47.57,148.63,45.77z M129.21,57.32c0.42-0.48,0.87-0.93,1.32-1.38c1.49,2.34,2.84,4.81,3.8,7.73
		c-6.5,5.45-10.56,13.91-10.55,26.02c0,1.25,0.03,2.44,0.09,3.59c-1.6-3.78-2.5-7.66-2.5-11.35
		C121.37,70.15,124.42,62.7,129.21,57.32z"/>
</g>
</svg>
