<?xml version="1.0" encoding="utf-8"?>
<!-- Generator: Adobe Illustrator 23.0.6, SVG Export Plug-In . SVG Version: 6.00 Build 0)  -->
<svg version="1.1" id="Layer_5" xmlns="http://www.w3.org/2000/svg" xmlns:xlink="http://www.w3.org/1999/xlink" x="0px" y="0px"
	 viewBox="0 0 442.74 150" style="enable-background:new 0 0 442.74 150;" xml:space="preserve">
<style type="text/css">
	.st0{fill:#FFFFFF;}
	.st1{fill:#1E4489;}
	.st2{fill:#727174;}
	.st3{fill:#717073;}
	.st4{fill:#19BFD3;}
</style>
<g>
	<circle class="st0" cx="80.95" cy="75.01" r="45.28"/>
	<circle class="st1" cx="80.95" cy="75.12" r="48.56"/>
	<g>
		<path class="st2" d="M80.76,23.2c-28.7,0-51.96,23.27-51.96,51.96s23.27,51.96,51.96,51.96s51.96-23.27,51.96-51.96
			S109.46,23.2,80.76,23.2z M80.76,117.56c-23.41,0-42.39-18.98-42.39-42.39s18.98-42.39,42.39-42.39s42.39,18.98,42.39,42.39
			S104.18,117.56,80.76,117.56z"/>
	</g>
	<g>
		<g>
			<path class="st3" d="M186.23,87.12h-22.75l-4.1,9.26h-5.05l17.99-40.8h5.05l17.99,40.8h-5.05L186.23,87.12z M184.33,82.72
				l-9.44-21.44l-9.5,21.44H184.33z"/>
			<path class="st3" d="M201.55,55.58h4.63l25.3,33.2v-33.2h4.63v40.8h-4.63l-25.3-33.2v33.2h-4.63V55.58z"/>
			<path class="st3" d="M256.01,59.97h-13.72v-4.39h32.07v4.39h-13.72v36.41h-4.63V59.97z"/>
			<path class="st3" d="M310.5,74.82c-1.09,1.86-2.6,3.39-4.54,4.57c-1.94,1.19-4.12,1.92-6.53,2.2l10.39,14.79h-5.29L294.2,81.71
				h-9.03v14.67h-4.63v-40.8h16.57c2.77,0,5.3,0.56,7.6,1.66c2.3,1.11,4.11,2.66,5.43,4.66c1.33,2,1.99,4.25,1.99,6.74
				C312.14,70.9,311.59,72.96,310.5,74.82z M285.17,77.32h11.11c3.37,0,6.07-0.77,8.11-2.32s3.06-3.66,3.06-6.35
				c0-2.69-1.02-4.81-3.06-6.35s-4.74-2.32-8.11-2.32h-11.11V77.32z"/>
			<path class="st3" d="M324.43,59.97V73.4h22.15v4.4h-22.15v14.19h24.59v4.39h-29.28v-40.8h29.28v4.39H324.43z"/>
			<path class="st3" d="M383.94,87.12h-22.75l-4.1,9.26h-5.05l18-40.8h5.05l18,40.8h-5.05L383.94,87.12z M382.03,82.72l-9.44-21.44
				l-9.5,21.44H382.03z"/>
		</g>
	</g>
	<path class="st4" d="M52,106.29c0.17,0.16,0.35,0.32,0.52,0.47c7.5,6.71,17.39,10.79,28.25,10.79c23.41,0,42.39-18.98,42.39-42.39
		c0-5.49-1.05-10.73-2.95-15.54c-3.94,0.68-8.02,1.28-12.17,1.87c0.25-3.68,0.48-7.35,0.77-10.95c1.71-0.27,3.42-0.57,5.09-0.91
		c0.21-0.04,0.41-0.09,0.61-0.13c-2.8-3.68-6.18-6.89-10.02-9.48c-0.03,0.19-0.06,0.38-0.09,0.57c-0.25,1.69-0.46,3.41-0.64,5.14
		c-3.45,0.46-6.98,0.88-10.51,1.3c0.32-4.1,0.65-8.14,1.07-12.04c-4.25-1.43-8.81-2.22-13.54-2.22c-23.41,0-42.39,18.98-42.39,42.39
		c0,10.1,3.54,19.37,9.44,26.65c0.2,0.24,0.4,0.49,0.61,0.73c0.11,0.13,0.22,0.26,0.34,0.39c0.39,0.44,0.79,0.88,1.19,1.32
		c0.05,0.05,0.1,0.11,0.16,0.16c0.34,0.35,0.68,0.7,1.03,1.05C51.42,105.75,51.71,106.02,52,106.29z M51.71,83.82
		c-0.01-9.42,2.37-15.4,6.37-19.64l0,0c0.39,3.68,0.24,8.04-0.72,13.41l0.09,0.01c-2.29,2.25-4.23,4.87-5.74,7.86
		C51.7,84.93,51.71,84.39,51.71,83.82z M62.9,60.27c2.6-1.63,5.62-2.9,8.96-3.93c-0.29,4.36-0.7,8.72-1.3,13.03
		c-2.5,1.02-4.88,2.2-7.09,3.57C63.9,68.06,63.63,63.9,62.9,60.27z M64.84,78.44c1.43-0.98,3-1.87,4.67-2.68
		C68.83,79.3,68,82.78,66.94,86.2c-4.29,1.63-8.39,3.6-12.22,6.03C56.39,86.03,59.93,81.79,64.84,78.44z M59.32,103.13
		c-1.08-0.5-2.14-1.13-3.24-1.92c-0.62-0.78-1.15-1.55-1.61-2.32c3.06-2.25,6.41-4.13,9.97-5.74
		C63.02,96.58,61.33,99.91,59.32,103.13z M71.22,90.48c3.23-1.1,6.59-2.03,10.04-2.82c-0.65,1.57-1.37,3.04-2.18,4.41
		c-3.11,5.3-7.23,9.16-13.57,11.12C67.85,99.08,69.71,94.82,71.22,90.48z M92.58,97.54c-3.87,3.95-9.4,6.5-18.05,7.1
		c2.45-1.66,4.59-3.64,6.41-5.89C85.48,97.76,89.29,97.41,92.58,97.54z M84.92,92.53c0.99-1.96,1.85-4.01,2.59-6.16
		c3.93-0.72,7.95-1.32,12-1.84c-0.82,2.92-1.85,5.59-3.17,7.94C93,92.02,89.24,91.98,84.92,92.53z M105.78,103.36
		c-5.11,5.11-12.34,8.56-23.95,9.16c-4.19,0.22-8.47-0.62-12.58-2.26c1.39,0.03,2.84,0,4.37-0.08c11.94-0.62,20.12-5.06,25.21-11.76
		c3.12,0.8,5.77,2.06,8.28,3.49l0,0C106.68,102.41,106.24,102.89,105.78,103.36z M107.43,70.41c0.11-1.13,0.2-2.28,0.29-3.42
		c4.43-0.61,8.84-1.22,13.15-1.96c-0.99,4.02-1.88,8.03-2.84,11.91c-2.32,0.26-4.67,0.52-7.03,0.78c-1.51,0.16-3.02,0.33-4.54,0.49
		C106.86,75.66,107.17,73.04,107.43,70.41z M105.31,83.84c1.99-0.23,3.99-0.45,5.98-0.66c1.74-0.19,3.48-0.37,5.22-0.55
		c-0.05,0.19-0.1,0.38-0.16,0.56c-1.55,5.24-3.41,10.06-5.94,14.21c-2.54-1.42-5.36-2.76-8.61-3.73
		C103.35,90.62,104.47,87.31,105.31,83.84z M91.96,63.46c0.37-3.62,0.66-7.28,0.93-10.94c3.44-0.4,6.93-0.79,10.41-1.23
		c-0.27,3.65-0.48,7.31-0.71,10.91c-3.46,0.48-6.93,0.98-10.35,1.55c-0.1,0.02-0.21,0.04-0.31,0.05
		C91.94,63.69,91.95,63.57,91.96,63.46z M91.25,69.45c0.54-0.1,1.07-0.19,1.62-0.28c3.05-0.52,6.18-0.98,9.32-1.42
		c-0.07,0.81-0.13,1.61-0.2,2.4c-0.29,3.01-0.66,5.93-1.17,8.7c-3.87,0.47-7.74,0.99-11.58,1.63
		C90.11,76.94,90.74,73.24,91.25,69.45z M77.96,43.34c0.07-1.82,0.12-3.63,0.19-5.41c3.51-1.04,7.11-2.04,10.72-3.13
		c-0.45,4.21-0.78,8.51-1.09,12.83c-1.25,0.16-2.49,0.33-3.72,0.52c-2.14,0.32-4.26,0.69-6.34,1.1
		C77.81,47.27,77.89,45.29,77.96,43.34z M77.43,54.89c2.3-0.5,4.7-0.94,7.16-1.31c0.92-0.14,1.85-0.25,2.78-0.38
		c-0.25,3.36-0.52,6.7-0.85,9.97c-0.06,0.56-0.12,1.11-0.18,1.66c-3.44,0.69-6.79,1.5-10,2.48C76.85,63.16,77.18,59.01,77.43,54.89z
		 M75.49,73.32c3.15-1.08,6.55-1.98,10.11-2.76c-0.58,3.88-1.32,7.59-2.27,11.01c-3.44,0.7-6.83,1.53-10.14,2.51
		C74.14,80.53,74.9,76.93,75.49,73.32z M71.1,40.19c0.5-0.18,1.01-0.34,1.52-0.51c-0.04,1.25-0.08,2.49-0.13,3.75
		c-0.09,2.37-0.18,4.76-0.3,7.15c-3.86,1.07-7.51,2.45-10.82,4.36c-1.13-3.07-2.56-5.72-4.05-8.1
		C61.29,44.08,65.97,41.99,71.1,40.19z M51.68,51.74c0.42-0.48,0.87-0.93,1.32-1.38c1.49,2.34,2.84,4.81,3.8,7.73
		C50.3,63.54,46.24,72,46.24,84.11c0,1.25,0.03,2.44,0.09,3.59c-1.6-3.78-2.5-7.66-2.5-11.35C43.83,64.57,46.89,57.12,51.68,51.74z"
		/>
</g>
</svg>
