<?xml version="1.0" encoding="UTF-8"?>
<svg width="61px" height="73px" viewBox="0 0 61 73" version="1.1" xmlns="http://www.w3.org/2000/svg" xmlns:xlink="http://www.w3.org/1999/xlink">
    <!-- Generator: Sketch 57.1 (83088) - https://sketch.com -->
    <title>icon-bulb</title>
    <desc>Created with Sketch.</desc>
    <g id="Final" stroke="none" stroke-width="1" fill="none" fill-rule="evenodd">
        <g id="Home-Page-Antrea--" transform="translate(-690.000000, -594.000000)" fill="#0095D3">
            <g id="Callout-2" transform="translate(569.000000, 552.000000)">
                <g id="icon-bulb" transform="translate(121.000000, 42.000000)">
                    <path d="M8.48776492,24 C8.35656525,24 8.22457522,23.9727385 8.09653699,23.9149111 C7.59623946,23.6893842 7.36466414,23.0813704 7.58122263,22.5576193 C9.6946438,17.4374157 13.3958971,13.0301414 18.004483,10.1462061 C18.4723758,9.85459081 19.0785815,10.012377 19.3599495,10.5022577 C19.6397367,10.9913124 19.4871974,11.6257616 19.0193046,11.9190291 C14.7640093,14.5815681 11.3457047,18.650139 9.39509756,23.3762901 C9.23386424,23.7662121 8.87029889,24 8.48776492,24" id="Fill-1"></path>
                    <path d="M30.4714756,54 C29.9037301,54 29.4429512,53.5574353 29.4429512,53.0121323 L29.4429512,35.0400521 L25.5,31.2537526 L29.753977,27.2801534 C30.1620954,26.8992316 30.8121229,26.9079248 31.2087219,27.2991205 C31.6044981,27.6903161 31.5954471,28.3154388 31.1889742,28.6963606 L28.4300603,31.2735099 L31.5,34.2220976 L31.5,53.0121323 C31.5,53.5574353 31.0392211,54 30.4714756,54" id="Fill-3"></path>
                    <path d="M26.4488386,27 C26.2059359,27 25.9630332,26.9073934 25.7778199,26.7221801 C25.4073934,26.3517535 25.4073934,25.7505693 25.7778199,25.3801427 L28.8801427,22.2778199 C29.2505693,21.9073934 29.8509944,21.9073934 30.2221801,22.2778199 C30.5926066,22.6490056 30.5926066,23.2494307 30.2221801,23.6198573 L27.1198573,26.7221801 C26.934644,26.9073934 26.6917413,27 26.4488386,27" id="Fill-5"></path>
                    <path d="M16.8529446,57 C16.4417409,56.3491697 15.8785359,55.8012727 15.2241302,55.416286 C6.14164987,50.0759115 0.5,40.2542909 0.5,29.785082 C0.5,21.55447 3.80562922,13.8944488 9.8096823,8.21609647 C15.9889369,2.37078142 24.1026086,-0.514593165 32.6578843,0.0754497285 C47.5860162,1.11450878 59.5309218,13.0855713 60.4429299,27.9209355 C61.134936,39.1755174 55.4932861,49.7225341 45.7211998,55.4462744 C45.0867941,55.8182932 44.5387893,56.3540327 44.1379858,56.9959475 L42.4483708,55.912311 C43.0211759,54.9948268 43.8067828,54.2272847 44.7203909,53.6915452 C53.8316714,48.3560337 59.0909179,38.5287396 58.4469122,28.0465628 C57.5973047,14.2227007 46.4516062,3.06699962 32.5202831,2.09683294 C24.5242124,1.53839949 16.9441454,4.23898042 11.1744944,9.69687719 C5.58084491,14.9878113 2.50001768,22.1218189 2.50001768,29.785082 C2.50001768,39.5353787 7.76006418,48.6842856 16.228139,53.6639883 C17.1577473,54.2102642 17.9561543,54.9867218 18.5377595,55.9082585 L16.8529446,57 Z" id="Fill-7"></path>
                    <path d="M41.5040793,61 L18.4959207,61 C17.9461725,61 17.5,60.552 17.5,60 C17.5,59.448 17.9461725,59 18.4959207,59 L41.5040793,59 C42.0538275,59 42.5,59.448 42.5,60 C42.5,60.552 42.0538275,61 41.5040793,61" id="Fill-9"></path>
                    <path d="M41.5040793,67 L18.4959207,67 C17.9461725,67 17.5,66.552 17.5,66 C17.5,65.448 17.9461725,65 18.4959207,65 L41.5040793,65 C42.0538275,65 42.5,65.448 42.5,66 C42.5,66.552 42.0538275,67 41.5040793,67" id="Fill-11"></path>
                    <path d="M37.5,73 L23.5,73 C22.948,73 22.5,72.552 22.5,72 C22.5,71.448 22.948,71 23.5,71 L37.5,71 C38.052,71 38.5,71.448 38.5,72 C38.5,72.552 38.052,73 37.5,73" id="Fill-13"></path>
                </g>
            </g>
        </g>
    </g>
</svg>