<?xml version="1.0" encoding="UTF-8"?>
<svg width="62px" height="62px" viewBox="0 0 62 62" version="1.1" xmlns="http://www.w3.org/2000/svg" xmlns:xlink="http://www.w3.org/1999/xlink">
    <!-- Generator: Sketch 57.1 (83088) - https://sketch.com -->
    <title>icon-flexibility-extensibility</title>
    <desc>Created with Sketch.</desc>
    <defs>
        <polygon id="path-1" points="0 0 62 0 62 62 0 62"></polygon>
    </defs>
    <g id="Final" stroke="none" stroke-width="1" fill="none" fill-rule="evenodd">
        <g id="Home-Page-Antrea--" transform="translate(-1009.000000, -594.000000)">
            <g id="Callout-3" transform="translate(890.000000, 552.000000)">
                <g id="icon-flexibility-extensibility" transform="translate(119.000000, 42.000000)">
                    <mask id="mask-2" fill="white">
                        <use xlink:href="#path-1"></use>
                    </mask>
                    <g id="Clip-2"></g>
                    <path d="M23.3830417,60.3854167 L23.3830417,54.5968125 L29.2181458,54.5968125 L29.2181458,60.2485 L30.8327292,60.2485 L30.8327292,52.9822292 L27.1082083,52.9822292 L27.1082083,49.9855625 C28.4528333,49.5954792 29.44225,48.3690417 29.44225,46.8978333 C29.44225,45.4272708 28.4528333,44.2001875 27.1082083,43.8101042 L27.1082083,38.8759375 L38.9502083,38.8759375 L38.9502083,43.8714583 L52.1265,43.8714583 L52.1265,48.8663333 L60.3854167,48.8663333 L60.3854167,60.3854167 L23.3830417,60.3854167 Z M1.61458333,47.5720833 L7.74160417,47.5720833 C8.05225,49.0316667 9.3465,50.127 10.8977917,50.127 C12.4497292,50.127 13.7439792,49.0316667 14.054625,47.5720833 L23.05625,47.5720833 C23.3165208,48.7985208 24.2742917,49.7621042 25.493625,50.0398125 L25.493625,52.9822292 L21.7684583,52.9822292 L21.7684583,60.3854167 L1.61458333,60.3854167 L1.61458333,47.5720833 Z M46.1648125,9.37491667 C47.5003958,9.37491667 48.5866875,10.4612083 48.5866875,11.7967917 C48.5866875,13.1317292 47.5003958,14.2186667 46.1648125,14.2186667 C45.0113542,14.2186667 44.047125,13.4062083 43.8049375,12.3237917 L43.8049375,11.2691458 C44.047125,10.1867292 45.0113542,9.37491667 46.1648125,9.37491667 L46.1648125,9.37491667 Z M21.7755625,37.2613542 L32.6953125,20.3521458 L43.6144167,37.2613542 L21.7755625,37.2613542 Z M8.69291667,35.3587292 L13.279625,35.3587292 L13.279625,20.274 L8.69291667,20.274 L8.69291667,35.3587292 Z M1.61458333,45.9575 L1.61458333,12.6086042 L7.784875,12.6086042 C8.08647917,13.7672292 9.00679167,14.6713958 10.1789792,14.9394167 L10.1789792,18.6594167 L7.07833333,18.6594167 L7.07833333,36.9733125 L10.1789792,36.9733125 L10.1789792,43.7558542 C9.05135417,44.0128958 8.16010417,44.8615208 7.82427083,45.9575 L1.61458333,45.9575 Z M25.493625,43.7558542 C24.3653542,44.0128958 23.47475,44.8615208 23.1389167,45.9575 L13.9719583,45.9575 C13.6542083,44.9209375 12.8372292,44.113 11.7935625,43.8101042 L11.7935625,36.9733125 L14.8935625,36.9733125 L14.8935625,18.6594167 L11.7935625,18.6594167 L11.7935625,14.8845208 C12.8798542,14.5693542 13.72525,13.7078125 14.0113542,12.6086042 L29.3796042,12.6086042 C29.6521458,13.8285833 30.5963542,14.787 31.8040625,15.0911875 L31.8040625,18.755 L18.8111875,38.8759375 L25.493625,38.8759375 L25.493625,43.7558542 Z M53.7410833,47.25175 L60.3854167,47.25175 L60.3854167,38.8759375 L53.7410833,38.8759375 L53.7410833,47.25175 Z M52.8207708,31.4204375 C51.4858333,31.4204375 50.3988958,30.3341458 50.3988958,28.9985625 C50.3988958,27.663625 51.4858333,26.5766875 52.8207708,26.5766875 C54.1557083,26.5766875 55.2426458,27.663625 55.2426458,28.9985625 C55.2426458,30.3341458 54.1557083,31.4204375 52.8207708,31.4204375 L52.8207708,31.4204375 Z M60.3854167,1.61458333 L60.3854167,37.2613542 L53.7410833,37.2613542 L53.7410833,32.9252292 C55.5242292,32.507375 56.8572292,30.907 56.8572292,28.9985625 C56.8572292,26.7730208 55.0463125,24.9621042 52.8207708,24.9621042 C50.5952292,24.9621042 48.7843125,26.7730208 48.7843125,28.9985625 C48.7843125,30.9870833 50.2309792,32.6404167 52.1265,32.9710833 L52.1265,37.2613542 L52.1265,38.0686458 L52.1265,42.256875 L40.5647917,42.256875 L40.5647917,38.8759375 L46.5787917,38.8759375 L33.4186458,18.495375 L33.4186458,15.0911875 C34.627,14.787 35.5712083,13.8292292 35.84375,12.6086042 L42.210375,12.6086042 C42.5875417,14.4466458 44.217625,15.83325 46.1648125,15.83325 C48.391,15.83325 50.2012708,14.0223333 50.2012708,11.7967917 C50.2012708,9.57060417 48.391,7.76033333 46.1648125,7.76033333 C44.2143958,7.76033333 42.582375,9.15145833 42.2090833,10.9940208 L35.7927292,10.9940208 C35.4013542,9.59772917 34.1335833,8.567625 32.612,8.567625 C31.0904167,8.567625 29.822,9.59772917 29.430625,10.9940208 L14.0145833,10.9940208 C13.6561458,9.60160417 12.4025833,8.567625 10.8977917,8.567625 C9.39364583,8.567625 8.1394375,9.60160417 7.78164583,10.9940208 L1.61458333,10.9940208 L1.61458333,1.61458333 L60.3854167,1.61458333 Z M0,62 L62,62 L62,0 L0,0 L0,62 Z" id="Fill-1" fill="#0091DA" mask="url(#mask-2)"></path>
                </g>
            </g>
        </g>
    </g>
</svg>