<?xml version="1.0" encoding="UTF-8"?>
<svg width="91px" height="71px" viewBox="0 0 91 71" version="1.1" xmlns="http://www.w3.org/2000/svg" xmlns:xlink="http://www.w3.org/1999/xlink">
    <!-- Generator: Sketch 57.1 (83088) - https://sketch.com -->
    <title>icon-cloud</title>
    <desc>Created with Sketch.</desc>
    <defs>
        <polygon id="path-1" points="0 0.6066 8.7138 0.6066 8.7138 8.5113 0 8.5113"></polygon>
        <polygon id="path-3" points="0.12348 0.111 13.2962667 0.111 13.2962667 8.895 0.12348 8.895"></polygon>
        <polygon id="path-5" points="0.68904 0.278133333 8.65494 0.278133333 8.65494 13.3661733 0.68904 13.3661733"></polygon>
    </defs>
    <g id="Final" stroke="none" stroke-width="1" fill="none" fill-rule="evenodd">
        <g id="Home-Page-Antrea--" transform="translate(-354.000000, -589.000000)">
            <g id="Callout-1-" transform="translate(250.000000, 552.000000)">
                <g id="icon-cloud" transform="translate(104.000000, 37.000000)">
                    <path d="M9.5,35 C9.65915628,35.368 9.76078619,35.7592 9.76078619,36.1728 C9.76078619,36.4592 9.70805369,36.7336 9.6303931,37 L11.6927133,37 C11.8748802,36.3024 12.1490892,35.6336 12.5,35 L9.5,35 Z" id="Fill-1" fill="#0095D3"></path>
                    <g id="Group-5" transform="translate(0.500000, 31.000000)">
                        <mask id="mask-2" fill="white">
                            <use xlink:href="#path-1"></use>
                        </mask>
                        <g id="Clip-4"></g>
                        <path d="M4.4248,6.2613 C3.3628,6.2613 2.4998,5.4972 2.4998,4.5585 C2.4998,3.6198 3.3628,2.8566 4.4248,2.8566 C5.4868,2.8566 6.3508,3.6198 6.3508,4.5585 C6.3508,5.4972 5.4868,6.2613 4.4248,6.2613 L4.4248,6.2613 Z M7.2678,3.24 L8.5778,3.24 C7.9668,1.71 6.3448,0.6066 4.4248,0.6066 C1.9858,0.6066 -0.0002,2.3796 -0.0002,4.5585 C-0.0002,6.7383 1.9858,8.5113 4.4248,8.5113 C6.5048,8.5113 8.2408,7.2189 8.7138,5.49 L7.2678,5.49 L7.2678,3.24 Z" id="Fill-3" fill="#0095D3" mask="url(#mask-2)"></path>
                    </g>
                    <path d="M9.1563487,35 L7.5,35 L7.5,37 L9.32817435,37 C9.43051169,36.7336 9.5,36.4592 9.5,36.1728 C9.5,35.7592 9.36607707,35.368 9.1563487,35" id="Fill-6" fill="#0095D3"></path>
                    <path d="M48.240113,66.7571366 C48.240113,67.7647201 47.46,68.5848911 46.5,68.5848911 C45.540904,68.5848911 44.759887,67.7647201 44.759887,66.7571366 C44.759887,65.7495532 45.540904,64.9293822 46.5,64.9293822 C47.46,64.9293822 48.240113,65.7495532 48.240113,66.7571366 L48.240113,66.7571366 Z M45.3700565,62.7084481 C43.7176271,63.2291455 42.5,64.836642 42.5,66.7571366 C42.5,69.0968942 44.2952542,71 46.5,71 C48.7056497,71 50.5,69.0968942 50.5,66.7571366 C50.5,64.836642 49.2823729,63.2291455 47.6299435,62.7084481 L47.6299435,51 C46.879661,51.0028981 46.1257627,51.0057963 45.3700565,51.0086944 L45.3700565,62.7084481 Z" id="Fill-8" fill="#0095D3"></path>
                    <g id="Group-12" transform="translate(77.500000, 31.000000)">
                        <mask id="mask-4" fill="white">
                            <use xlink:href="#path-3"></use>
                        </mask>
                        <g id="Clip-11"></g>
                        <path d="M9.16654667,6.395 C8.17534667,6.395 7.36988,5.546 7.36988,4.503 C7.36988,3.46 8.17534667,2.611 9.16654667,2.611 C10.1577467,2.611 10.9632133,3.46 10.9632133,4.503 C10.9632133,5.546 10.1577467,6.395 9.16654667,6.395 M9.16654667,0.111 C7.35868,0.111 5.83454667,1.362 5.27641333,3.086 L0.12348,3.086 C0.310146667,3.894 0.438013333,4.729 0.50428,5.586 L5.17934667,5.586 C5.63574667,7.482 7.24294667,8.895 9.16654667,8.895 C11.4429467,8.895 13.2965467,6.925 13.2965467,4.503 C13.2965467,2.082 11.4429467,0.111 9.16654667,0.111" id="Fill-10" fill="#0095D3" mask="url(#mask-4)"></path>
                    </g>
                    <g id="Group-15" transform="translate(42.500000, 0.000000)">
                        <mask id="mask-6" fill="white">
                            <use xlink:href="#path-5"></use>
                        </mask>
                        <g id="Clip-14"></g>
                        <path d="M2.93904,4.37724 C2.93904,3.40377333 3.71664,2.61137333 4.67244,2.61137333 C5.62734,2.61137333 6.40494,3.40377333 6.40494,4.37724 C6.40494,5.35070667 5.62734,6.14310667 4.67244,6.14310667 C3.71664,6.14310667 2.93904,5.35070667 2.93904,4.37724 L2.93904,4.37724 Z M5.79744,8.28884 C7.44264,7.78577333 8.65494,6.23270667 8.65494,4.37724 C8.65494,2.11764 6.86754,0.27804 4.67244,0.27804 C2.47554,0.27804 0.68904,2.11764 0.68904,4.37724 C0.68904,6.23270667 1.90134,7.78577333 3.54744,8.28884 L3.54744,13.3661733 C4.26384,12.8743067 5.01534,12.4459067 5.79744,12.0921733 L5.79744,8.28884 Z" id="Fill-13" fill="#0095D3" mask="url(#mask-6)"></path>
                    </g>
                    <path d="M22.9619722,9.70649526 C23.0744217,9.40811908 23.1455437,9.08985115 23.1455437,8.7526387 C23.1455437,7.23328823 21.8826488,6 20.3237329,6 C18.7648171,6 17.5,7.23328823 17.5,8.7526387 C17.5,10.2729364 18.7648171,11.5052774 20.3237329,11.5052774 C20.6418594,11.5052774 20.942686,11.4427605 21.2290959,11.3470907 L30.1010764,20 C30.8661178,19.5993234 31.6667201,19.2640054 32.5,19.0082544 L22.9619722,9.70649526 Z" id="Fill-16" fill="#0095D3"></path>
                    <path d="M66.1065473,17 L69.5738733,13.5344415 C70.5829766,13.9325658 71.7729754,13.7468403 72.6099836,12.9486159 C73.7579365,11.8550089 73.8009602,10.038258 72.7067871,8.89031639 C71.612614,7.74237482 69.7948591,7.69890715 68.6478841,8.79251414 C67.8274987,9.57394425 67.5820676,10.7218858 67.8998569,11.7325091 L64.5,15.1318782 C65.0749542,15.7117764 65.6117737,16.3351423 66.1065473,17" id="Fill-18" fill="#0095D3"></path>
                    <path d="M63.2612656,54.3044998 C62.9965492,55.2605186 63.1909788,56.3343078 63.8792413,57.1082278 C64.9006814,58.2582214 66.5966918,58.3017668 67.6683367,57.2052152 C68.7408944,56.1096533 68.7810582,54.2886651 67.7596182,53.1396611 C66.97551,52.2578674 65.7970658,52.0332129 64.8057486,52.4676769 L63.5770996,51 C62.7154021,51.0019793 61.6793571,51.0049483 60.5,51.0079173 L63.2612656,54.3044998 Z" id="Fill-20" fill="#0095D3"></path>
                    <path d="M22.1653791,58.5873628 C21.572187,58.4128859 20.9198696,58.4128859 20.2985688,58.6521958 C18.8369125,59.2166239 18.1215927,60.8260067 18.701215,62.2485181 C19.2788988,63.6719829 20.9334394,64.3679837 22.3950956,63.804509 C23.8567519,63.2410344 24.5720717,61.6306981 23.994388,60.2081868 C23.9895416,60.1967457 23.9827568,60.1891183 23.9779104,60.1776771 L33.5,51 C32.2680603,51.0038137 31.0981537,51.0076274 30.0251739,51.0114411 L22.1653791,58.5873628 Z" id="Fill-22" fill="#0095D3"></path>
                    <path d="M54.1709274,13 C48.5372406,13 43.6678803,16.7828956 41.5686067,22.1972544 C40.1363296,21.50269 38.5513781,21.1172449 36.8624172,21.0704953 C36.7669956,21.0685872 36.6706199,21.066679 36.5761526,21.066679 C31.0302536,21.066679 26.3765459,25.0031802 25.2362586,30.324994 C24.5110551,30.1236848 23.7419576,30.0158747 22.9575927,30.0006095 C22.8822096,29.9987014 22.8068266,29.9977473 22.7323979,29.9977473 C17.7351726,29.9977473 13.6215507,34.0096202 13.5022738,39.0537991 C13.3820427,44.1743037 18.0481552,48.8578433 23.1455731,48.9961837 C23.2724837,48.9990459 23.6484445,49 24.2305158,49 C30.3623029,49 59.5221665,48.8750166 65.5967007,48.8750166 C66.1740009,48.8750166 66.542328,48.8759706 66.6625591,48.8778788 C66.7350795,48.880741 66.8075999,48.8816951 66.8801202,48.8816951 C72.0624632,48.8816951 76.3621571,43.9968463 76.4957472,37.9127289 C76.6465132,31.9287891 72.7704909,26.9781093 67.7637235,26.4991652 C67.0852765,19.0497708 61.4744909,13.1745952 54.5087196,13.0047704 C54.395168,13.0009541 54.2825706,13 54.1709274,13 M54.1709274,15.3851801 C54.2615779,15.3851801 54.3522283,15.3861342 54.4495583,15.3889964 C60.1109173,15.5263827 64.8123358,20.3959664 65.3877276,26.7157395 L65.56712,28.6858983 L67.5366203,28.8738505 C71.3410765,29.2373519 74.2285318,33.1814857 74.1102091,37.8602549 C74.0061996,42.6220285 70.762822,46.496515 66.8801202,46.496515 L66.7121783,46.4936528 C66.5862219,46.4917446 66.200719,46.4898365 65.5967007,46.4898365 C62.5622963,46.4898365 53.6289332,46.5213209 44.9894684,46.5518512 C36.2927507,46.5833355 27.299272,46.6148199 24.2305158,46.6148199 C23.6732541,46.6148199 23.3135149,46.6138658 23.2104597,46.6119577 C19.3582928,46.5079639 15.7990699,42.8615005 15.8878119,39.1100893 C15.9746455,35.4006572 19.0443559,32.3829274 22.7323979,32.3829274 L22.9108361,32.3857896 C23.5034038,32.3972385 24.0711618,32.4773805 24.5988429,32.6233536 L27.0368628,33.2997906 L27.5683607,30.8249278 C28.4844073,26.5525932 32.2726418,23.4518591 36.5761526,23.4518591 C36.6515356,23.4518591 36.728827,23.4528132 36.7975305,23.4547213 C38.1324776,23.4919301 39.3882249,23.7905547 40.5275579,24.3429624 L42.8577515,25.4725837 L43.7928825,23.0587814 C45.6011203,18.3971855 49.673711,15.3851801 54.1709274,15.3851801" id="Fill-24" fill="#0095D3"></path>
                </g>
            </g>
        </g>
    </g>
</svg>